<svg width="184" height="184" viewBox="0 0 184 184" fill="none" xmlns="http://www.w3.org/2000/svg">
<path d="M158.663 46.2561C158.663 43.2986 156.244 40.8789 153.286 40.8789H30.3635C27.4061 40.8789 24.9863 43.2986 24.9863 46.2561V67.7828H158.645V46.2561H158.663ZM42.2113 63.481C37.1567 63.481 33.0342 59.3585 33.0342 54.304C33.0342 49.2494 37.1567 45.1269 42.2113 45.1269C47.2658 45.1269 51.3884 49.2494 51.3884 54.304C51.3884 59.3585 47.2838 63.481 42.2113 63.481ZM92.721 62.2622H67.1615C62.8418 62.2622 59.3287 58.7491 59.3287 54.4294C59.3287 50.1098 62.8418 46.5967 67.1615 46.5967H92.721C97.0407 46.5967 100.554 50.1098 100.554 54.4294C100.554 58.7491 97.0407 62.2622 92.721 62.2622Z" fill="#E6E6E6" fill-opacity="0.1"/>
<path d="M38.2313 134.933H91.7882C92.774 134.933 93.5806 134.127 93.5806 133.141C93.5806 132.155 92.774 131.348 91.7882 131.348H38.2313C36.7078 131.348 35.471 130.112 35.471 128.588V94.0307C35.471 93.0449 34.6644 92.2383 33.6786 92.2383C32.6928 92.2383 31.8862 93.0449 31.8862 94.0307V128.606C31.9042 132.083 34.7361 134.933 38.2313 134.933Z" fill="white"/>
<path d="M42.2104 48.7188C39.1275 48.7188 36.6182 51.2281 36.6182 54.311C36.6182 57.394 39.1275 59.9033 42.2104 59.9033C45.2934 59.9033 47.8027 57.394 47.8027 54.311C47.8027 51.2281 45.2934 48.7188 42.2104 48.7188Z" fill="white"/>
<path d="M42.2117 45.1367C37.1572 45.1367 33.0347 49.2592 33.0347 54.3138C33.0347 59.3684 37.1572 63.4909 42.2117 63.4909C47.2663 63.4909 51.3888 59.3684 51.3888 54.3138C51.3888 49.2592 47.2842 45.1367 42.2117 45.1367ZM42.2117 59.9061C39.1288 59.9061 36.6195 57.3967 36.6195 54.3138C36.6195 51.2309 39.1288 48.7215 42.2117 48.7215C45.2947 48.7215 47.804 51.2309 47.804 54.3138C47.804 57.3967 45.2947 59.9061 42.2117 59.9061Z" fill="#4696FF"/>
<path d="M92.7207 50.2031H67.1611C64.831 50.2031 62.9131 52.1031 62.9131 54.4511C62.9131 56.7991 64.813 58.6991 67.1611 58.6991H92.7207C95.0508 58.6991 96.9686 56.7991 96.9686 54.4511C96.9686 52.1031 95.0508 50.2031 92.7207 50.2031Z" fill="white"/>
<path d="M92.721 46.6211H67.1614C62.8417 46.6211 59.3286 50.1342 59.3286 54.4539C59.3286 58.7735 62.8417 62.2866 67.1614 62.2866H92.721C97.0407 62.2866 100.554 58.7735 100.554 54.4539C100.554 50.1342 97.0407 46.6211 92.721 46.6211ZM92.721 58.6839H67.1614C64.8313 58.6839 62.9134 56.784 62.9134 54.4359C62.9134 52.0879 64.8134 50.188 67.1614 50.188H92.721C95.0511 50.188 96.969 52.0879 96.969 54.4359C96.969 56.784 95.0511 58.6839 92.721 58.6839Z" fill="#4696FF"/>
<path d="M153.287 33.7109H30.3647C23.446 33.7109 17.8179 39.3391 17.8179 46.2577V135.878C17.8179 142.796 23.446 148.424 30.3647 148.424H153.269C160.188 148.424 165.816 142.796 165.816 135.878V46.2577C165.834 39.3391 160.206 33.7109 153.287 33.7109ZM158.664 135.878C158.664 138.835 156.245 141.255 153.287 141.255H30.3647C27.4072 141.255 24.9875 138.835 24.9875 135.878V71.3692H158.647V135.878H158.664ZM158.664 67.7844H25.0054V46.2577C25.0054 43.3003 27.4251 40.8805 30.3826 40.8805H153.287C156.245 40.8805 158.664 43.3003 158.664 46.2577V67.7844Z" fill="#4696FF"/>
<path d="M82.4312 111.954L61.9441 103.835L82.4312 96.0021V87.6675L53.0718 100.376V107.456L82.4312 120.217V111.954ZM101.933 81.5195H95.7667L85.1557 125.828H91.214L101.933 81.5195ZM134.052 100.429L104.657 87.7212V95.9304L125.162 103.907L104.657 111.972V120.253L134.052 107.456V100.429Z" fill="#4696FF"/>
</svg>
