<svg width="184" height="184" viewBox="0 0 184 184" fill="none" xmlns="http://www.w3.org/2000/svg">
<path d="M50.2407 91.0351C50.2407 102.069 54.6237 112.65 62.4255 120.452C70.2273 128.254 80.8089 132.637 91.8423 132.637C102.876 132.637 113.457 128.254 121.259 120.452C129.061 112.65 133.444 102.069 133.444 91.0351C133.444 80.0017 129.061 69.4202 121.259 61.6184C113.457 53.8166 102.876 49.4336 91.8423 49.4336C80.8089 49.4336 70.2273 53.8166 62.4255 61.6184C54.6237 69.4202 50.2407 80.0017 50.2407 91.0351Z" fill="white" fill-opacity="0.1"/>
<path d="M92.0939 156.813C91.1081 156.813 90.3015 156.025 90.3015 155.039C90.3015 154.053 91.0902 153.247 92.076 153.229C92.6496 153.229 93.2411 153.211 93.8146 153.193C94.8004 153.157 95.6249 153.928 95.6608 154.931C95.6966 155.917 94.9259 156.742 93.9222 156.778C93.3486 156.796 92.7213 156.813 92.0939 156.813C92.1118 156.813 92.1118 156.813 92.0939 156.813ZM84.9422 156.473C84.8885 156.473 84.8168 156.473 84.7451 156.455L82.9168 156.24C81.931 156.114 81.2499 155.2 81.3754 154.232C81.5008 153.247 82.415 152.565 83.3829 152.691C83.9564 152.763 84.53 152.834 85.1036 152.888C86.0894 152.996 86.8063 153.874 86.6988 154.86C86.6271 155.792 85.8564 156.473 84.9422 156.473ZM101.02 156.15C100.142 156.15 99.3711 155.505 99.2456 154.609C99.1022 153.623 99.7833 152.727 100.769 152.583L102.49 152.314C103.458 152.153 104.39 152.798 104.569 153.766C104.748 154.734 104.085 155.666 103.117 155.846C102.508 155.953 101.898 156.043 101.289 156.132C101.199 156.15 101.11 156.15 101.02 156.15ZM76.1416 154.913C75.9982 154.913 75.8548 154.896 75.7114 154.86C75.1199 154.716 74.5284 154.555 73.9369 154.394C72.987 154.125 72.4313 153.139 72.7002 152.189C72.969 151.239 73.9549 150.683 74.9048 150.952C75.4605 151.114 76.034 151.257 76.5897 151.4C77.5576 151.633 78.1311 152.619 77.8981 153.569C77.6651 154.376 76.9302 154.913 76.1416 154.913ZM109.767 154.232C108.996 154.232 108.279 153.73 108.046 152.942C107.759 151.992 108.315 150.988 109.265 150.719C109.821 150.558 110.376 150.379 110.932 150.199C111.882 149.895 112.886 150.415 113.19 151.347C113.495 152.297 112.975 153.3 112.043 153.605C111.47 153.802 110.86 153.981 110.287 154.143C110.108 154.214 109.946 154.232 109.767 154.232ZM67.6098 152.135C67.3768 152.135 67.1617 152.099 66.9287 152.01C66.3551 151.777 65.7815 151.544 65.2259 151.293C64.3118 150.899 63.8995 149.841 64.3118 148.927C64.7061 148.013 65.7636 147.6 66.6777 148.013C67.2154 148.246 67.7532 148.479 68.2909 148.694C69.205 149.07 69.6531 150.11 69.2767 151.024C68.9899 151.723 68.3267 152.135 67.6098 152.135ZM118.173 151.132C117.492 151.132 116.847 150.737 116.542 150.074C116.13 149.178 116.524 148.102 117.438 147.708C117.958 147.475 118.496 147.224 119.016 146.973C119.912 146.543 120.987 146.901 121.418 147.798C121.848 148.694 121.489 149.769 120.593 150.199C120.037 150.468 119.482 150.737 118.926 150.988C118.657 151.078 118.406 151.132 118.173 151.132ZM59.5619 148.192C59.2572 148.192 58.9525 148.12 58.6657 147.941C58.1459 147.636 57.6082 147.314 57.0884 146.991C56.246 146.471 55.9771 145.36 56.5148 144.518C57.0346 143.675 58.1459 143.406 58.9883 143.944C59.4902 144.249 59.9921 144.553 60.476 144.84C61.3364 145.342 61.6232 146.435 61.1213 147.296C60.7807 147.887 60.1892 148.192 59.5619 148.192ZM126.042 146.866C125.45 146.866 124.877 146.579 124.518 146.041C123.981 145.199 124.232 144.105 125.074 143.568C125.558 143.263 126.042 142.94 126.526 142.618C126.721 142.485 126.94 142.393 127.172 142.346C127.403 142.298 127.641 142.297 127.872 142.342C128.104 142.387 128.324 142.477 128.52 142.608C128.717 142.738 128.886 142.906 129.017 143.102C129.15 143.297 129.242 143.516 129.289 143.747C129.337 143.978 129.338 144.216 129.293 144.448C129.248 144.679 129.158 144.9 129.027 145.096C128.897 145.293 128.729 145.462 128.533 145.593C128.031 145.934 127.512 146.274 126.992 146.597C126.687 146.776 126.365 146.866 126.042 146.866ZM52.1593 143.173C51.765 143.173 51.3886 143.048 51.048 142.797C50.5641 142.42 50.0801 142.026 49.6141 141.632C48.8613 141.004 48.7537 139.875 49.3811 139.105C50.0084 138.352 51.1376 138.244 51.9084 138.872C52.3565 139.248 52.8046 139.606 53.2706 139.965C54.0413 140.574 54.1847 141.704 53.5753 142.474C53.2168 142.94 52.6791 143.173 52.1593 143.173ZM133.229 141.56C132.728 141.56 132.226 141.345 131.867 140.933C131.222 140.18 131.312 139.051 132.064 138.406C132.512 138.029 132.943 137.653 133.373 137.258C134.108 136.595 135.237 136.649 135.9 137.384C136.563 138.119 136.51 139.248 135.775 139.911C135.327 140.323 134.861 140.736 134.394 141.13C134.054 141.417 133.642 141.56 133.229 141.56ZM45.5095 137.169C45.0435 137.169 44.5775 136.99 44.219 136.613C43.7888 136.183 43.3766 135.717 42.9643 135.269C42.3011 134.534 42.3549 133.405 43.0898 132.742C43.8247 132.078 44.9539 132.132 45.6171 132.867C46.0114 133.297 46.4057 133.727 46.8 134.14C47.4811 134.857 47.4632 135.986 46.7463 136.667C46.4057 137.007 45.9576 137.169 45.5095 137.169ZM139.628 135.305C139.198 135.305 138.786 135.161 138.445 134.857C137.71 134.193 137.639 133.064 138.302 132.329C138.678 131.899 139.073 131.451 139.449 131.003C140.094 130.25 141.224 130.143 141.976 130.788C142.729 131.433 142.837 132.562 142.191 133.315C141.797 133.781 141.385 134.247 140.991 134.713C140.614 135.09 140.13 135.305 139.628 135.305ZM39.7738 130.304C39.2182 130.304 38.6805 130.053 38.322 129.569C37.9635 129.067 37.605 128.565 37.2645 128.063C36.7088 127.239 36.906 126.128 37.7305 125.572C38.555 125.016 39.6663 125.213 40.2219 126.038C40.5446 126.522 40.8851 126.988 41.2257 127.454C41.7992 128.261 41.62 129.372 40.8313 129.963C40.5087 130.196 40.1323 130.304 39.7738 130.304ZM145.113 128.207C144.772 128.207 144.432 128.117 144.127 127.902C143.303 127.346 143.088 126.235 143.625 125.411C143.948 124.927 144.271 124.443 144.575 123.941C145.095 123.098 146.206 122.847 147.049 123.367C147.891 123.887 148.142 124.998 147.622 125.841C147.3 126.361 146.959 126.88 146.619 127.382C146.26 127.938 145.687 128.207 145.113 128.207ZM35.024 122.722C34.3787 122.722 33.7693 122.381 33.4467 121.772C33.1599 121.234 32.8731 120.679 32.6042 120.141C32.1561 119.263 32.5325 118.187 33.4108 117.739C34.307 117.291 35.3645 117.667 35.8126 118.546C36.0636 119.066 36.3324 119.585 36.6013 120.087C37.0673 120.965 36.7268 122.041 35.8664 122.507C35.5975 122.65 35.3108 122.722 35.024 122.722ZM149.54 120.428C149.271 120.428 149.02 120.374 148.77 120.249C147.873 119.818 147.497 118.743 147.927 117.865C148.178 117.345 148.429 116.807 148.662 116.287C149.074 115.391 150.132 114.979 151.028 115.373C151.924 115.785 152.336 116.843 151.942 117.739C151.691 118.295 151.44 118.868 151.171 119.406C150.849 120.051 150.203 120.428 149.54 120.428ZM31.4033 114.531C30.6685 114.531 29.9873 114.083 29.7185 113.348C29.5034 112.774 29.3062 112.183 29.1091 111.609C28.8044 110.677 29.3062 109.655 30.2562 109.351C31.1883 109.046 32.2099 109.548 32.5146 110.498C32.6939 111.054 32.891 111.609 33.0882 112.147C33.4287 113.079 32.9448 114.101 32.0128 114.441C31.8156 114.513 31.6005 114.531 31.4033 114.531ZM152.838 112.093C152.659 112.093 152.48 112.057 152.301 112.003C151.351 111.699 150.831 110.695 151.135 109.745C151.315 109.189 151.476 108.634 151.637 108.078C151.906 107.128 152.91 106.573 153.86 106.841C154.81 107.11 155.366 108.114 155.097 109.064C154.935 109.655 154.756 110.247 154.559 110.821C154.308 111.609 153.609 112.093 152.838 112.093ZM28.9478 105.927C28.1232 105.927 27.3704 105.354 27.1912 104.511C27.0657 103.92 26.9403 103.31 26.8327 102.701C26.6535 101.733 27.2987 100.801 28.2846 100.622C29.2525 100.443 30.1845 101.088 30.3637 102.074C30.4713 102.647 30.5788 103.221 30.7043 103.776C30.9015 104.744 30.2921 105.694 29.3242 105.891C29.1987 105.909 29.0732 105.927 28.9478 105.927ZM154.935 103.4C154.846 103.4 154.738 103.4 154.631 103.382C153.663 103.221 153 102.289 153.161 101.321L153.43 99.6001C153.573 98.6143 154.469 97.9332 155.455 98.0766C156.441 98.2199 157.122 99.1161 156.979 100.102C156.889 100.711 156.799 101.321 156.692 101.93C156.566 102.773 155.796 103.4 154.935 103.4ZM27.7289 97.0549C26.7969 97.0549 26.0082 96.3379 25.9365 95.388C25.9007 94.7785 25.8648 94.1512 25.8469 93.5418C25.8111 92.556 26.5818 91.7135 27.5676 91.6777C28.5534 91.6418 29.3959 92.4126 29.4317 93.3984C29.4496 93.972 29.4855 94.5635 29.5213 95.137C29.593 96.1228 28.8402 96.9832 27.8544 97.037C27.8006 97.0549 27.7648 97.0549 27.7289 97.0549ZM155.814 94.4918H155.76C154.774 94.4559 153.985 93.6493 154.021 92.6456C154.039 92.072 154.039 91.4805 154.039 90.907C154.039 89.9212 154.846 89.1146 155.832 89.1146C156.817 89.1146 157.624 89.9212 157.624 90.907C157.624 91.5164 157.624 92.1437 157.606 92.7531C157.57 93.721 156.782 94.4918 155.814 94.4918ZM27.7468 88.1108H27.6214C26.6356 88.0391 25.8828 87.1788 25.9544 86.193C25.9903 85.5835 26.0441 84.9741 26.1158 84.3647C26.2054 83.3789 27.0837 82.6619 28.0695 82.7516C29.0553 82.8412 29.7723 83.7195 29.6826 84.7053C29.6289 85.2788 29.5751 85.8703 29.5392 86.4439C29.4675 87.3939 28.6789 88.1108 27.7468 88.1108ZM155.455 85.7807C154.559 85.7807 153.77 85.0996 153.681 84.1855C153.627 83.6119 153.555 83.0383 153.466 82.4648C153.34 81.479 154.021 80.5828 155.007 80.4394C155.993 80.3139 156.889 80.995 157.032 81.9808C157.122 82.5902 157.194 83.1997 157.248 83.8091C157.355 84.7949 156.638 85.6732 155.652 85.7807H155.455ZM29.0015 79.2385C28.8761 79.2385 28.7506 79.2205 28.6251 79.2026C27.6572 78.9875 27.0478 78.0376 27.245 77.0697C27.3704 76.4602 27.5138 75.8688 27.6572 75.2773C27.8902 74.3094 28.8581 73.7179 29.826 73.9509C30.7939 74.1839 31.3854 75.1518 31.1524 76.1197C31.009 76.6753 30.8835 77.2489 30.7581 77.8225C30.5609 78.6649 29.826 79.2385 29.0015 79.2385ZM153.878 76.9621C153.071 76.9621 152.354 76.4244 152.139 75.5999C151.996 75.0442 151.852 74.4707 151.691 73.915C151.422 72.9651 151.978 71.9792 152.928 71.7104C153.878 71.4415 154.864 71.9972 155.133 72.9471L155.616 74.7216C155.867 75.6895 155.276 76.6574 154.308 76.8904C154.183 76.9442 154.039 76.9621 153.878 76.9621ZM31.475 70.635C31.2779 70.635 31.0628 70.5991 30.8656 70.5274C29.9336 70.1869 29.4675 69.1652 29.8081 68.2331C30.0232 67.6596 30.2383 67.086 30.4713 66.5124C30.8298 65.5983 31.8873 65.1502 32.8014 65.5087C33.7155 65.8672 34.1636 66.9247 33.8052 67.8388C33.5901 68.3765 33.375 68.9322 33.1778 69.4699C32.891 70.1869 32.2099 70.635 31.475 70.635ZM151.1 68.4661C150.401 68.4661 149.719 68.0539 149.433 67.3549C149.218 66.8171 148.985 66.2794 148.752 65.7596C148.357 64.8455 148.77 63.788 149.666 63.3937C150.58 62.9993 151.637 63.4116 152.032 64.3078C152.283 64.8634 152.516 65.437 152.749 65.9926C153.125 66.9068 152.677 67.9643 151.763 68.3228C151.548 68.4124 151.315 68.4661 151.1 68.4661ZM35.1494 62.4616C34.8627 62.4616 34.5759 62.3899 34.307 62.2465C33.4287 61.7805 33.1061 60.6871 33.5721 59.8268C33.8589 59.2891 34.1636 58.7334 34.4683 58.2136C34.9523 57.3533 36.0636 57.0486 36.906 57.5504C37.7663 58.0344 38.0711 59.1457 37.5692 59.9881C37.2824 60.49 36.9956 61.0098 36.7268 61.5117C36.4041 62.1211 35.7768 62.4616 35.1494 62.4616ZM147.138 60.4362C146.529 60.4362 145.92 60.1136 145.597 59.54C145.31 59.0381 145.005 58.5363 144.701 58.0523C144.181 57.2099 144.432 56.0986 145.274 55.5788C146.117 55.059 147.228 55.3099 147.748 56.1524C148.07 56.6722 148.393 57.192 148.698 57.7297C149.2 58.59 148.913 59.6834 148.053 60.1853C147.766 60.3645 147.443 60.4362 147.138 60.4362ZM39.9172 54.8798C39.5587 54.8798 39.1823 54.7722 38.8597 54.5392C38.0531 53.9477 37.8918 52.8364 38.4654 52.0299C38.8239 51.528 39.2003 51.044 39.5767 50.5601C40.1861 49.7714 41.3153 49.628 42.086 50.2375C42.8747 50.8469 43.0181 51.9761 42.4087 52.7468C42.0502 53.1949 41.7096 53.6609 41.3691 54.1449C41.0106 54.6288 40.4729 54.8798 39.9172 54.8798ZM142.102 53.0336C141.564 53.0336 141.044 52.8006 140.686 52.3525C140.327 51.9044 139.969 51.4384 139.592 51.0082C138.965 50.2554 139.055 49.1262 139.825 48.4809C140.578 47.8536 141.707 47.9432 142.353 48.7139C142.747 49.1799 143.141 49.6639 143.518 50.1478C144.127 50.9186 144.002 52.0478 143.213 52.6572C142.89 52.9081 142.496 53.0336 142.102 53.0336ZM45.6887 48.0328C45.2406 48.0328 44.7925 47.8715 44.4341 47.531C43.7171 46.8498 43.6992 45.7027 44.3982 45.0037C44.8284 44.5735 45.2586 44.1254 45.7067 43.6952C46.4236 42.9962 47.5528 43.0141 48.234 43.7311C48.933 44.448 48.9151 45.5772 48.1981 46.2583L46.9613 47.4951C46.6208 47.8536 46.1548 48.0328 45.6887 48.0328ZM136.079 46.4197C135.631 46.4197 135.183 46.2583 134.843 45.9178C134.43 45.5235 134 45.1112 133.57 44.7348C132.835 44.0716 132.781 42.9424 133.445 42.2075C134.108 41.4726 135.237 41.4189 135.972 42.0821C136.42 42.4943 136.886 42.9245 137.316 43.3367C138.033 44.0178 138.051 45.165 137.37 45.864C137.029 46.2225 136.563 46.4197 136.079 46.4197ZM52.3565 42.0641C51.8187 42.0641 51.299 41.8311 50.9405 41.3651C50.3311 40.5764 50.4744 39.4652 51.2452 38.8557C51.7291 38.4793 52.2131 38.1029 52.7149 37.7445C53.5215 37.153 54.6328 37.3322 55.2243 38.1209C55.8158 38.9274 55.6366 40.0387 54.8479 40.6302C54.3819 40.9708 53.9158 41.3293 53.4677 41.6877C53.1272 41.9387 52.7329 42.0641 52.3565 42.0641ZM129.214 40.684C128.856 40.684 128.48 40.5764 128.175 40.3434C127.709 40.0029 127.225 39.6623 126.741 39.3397C125.916 38.784 125.719 37.6728 126.275 36.8483C126.831 36.0238 127.942 35.8266 128.766 36.3822C129.268 36.7228 129.788 37.0813 130.272 37.4397C131.079 38.0133 131.258 39.1425 130.684 39.9491C130.308 40.4151 129.77 40.684 129.214 40.684ZM59.777 37.0633C59.1497 37.0633 58.5582 36.7407 58.2176 36.1671C57.7157 35.3068 58.0204 34.2134 58.8808 33.7116C59.4185 33.4069 59.9562 33.1021 60.4939 32.8154C61.3722 32.3493 62.4477 32.672 62.9137 33.5502C63.3797 34.4285 63.0571 35.504 62.1788 35.97C61.6769 36.2388 61.1571 36.5256 60.6553 36.8124C60.3864 36.9916 60.0817 37.0633 59.777 37.0633ZM121.597 35.9521C121.31 35.9521 121.023 35.8804 120.754 35.737C120.235 35.4681 119.715 35.1993 119.195 34.9483C118.299 34.5181 117.94 33.4427 118.37 32.5465C118.801 31.6503 119.876 31.2918 120.772 31.722C121.328 31.9909 121.866 32.2776 122.421 32.5644C123.3 33.0305 123.64 34.1059 123.174 34.9842C122.869 35.6115 122.242 35.9521 121.597 35.9521ZM67.8249 33.1738C67.1079 33.1738 66.4447 32.7437 66.1579 32.0446C65.7815 31.1305 66.2296 30.0909 67.1617 29.7145C67.7352 29.4815 68.3088 29.2664 68.8824 29.0513C69.8144 28.7108 70.8361 29.1768 71.1766 30.1088C71.5172 31.0409 71.0512 32.0626 70.1191 32.4031C69.5814 32.6003 69.0258 32.8154 68.488 33.0305C68.273 33.1201 68.0579 33.1738 67.8249 33.1738ZM113.406 32.3314C113.208 32.3314 112.993 32.2956 112.796 32.2239C112.24 32.0267 111.685 31.8295 111.147 31.6503C110.215 31.3456 109.695 30.3239 110 29.3919C110.305 28.4598 111.326 27.94 112.258 28.2448C112.832 28.4419 113.423 28.6391 114.015 28.8542C114.947 29.1947 115.431 30.2164 115.09 31.1484C114.822 31.8833 114.14 32.3314 113.406 32.3314ZM76.3567 30.4135C75.5501 30.4135 74.8152 29.8579 74.618 29.0513C74.385 28.0834 74.9765 27.1155 75.9265 26.8825C76.518 26.7391 77.1274 26.5957 77.7189 26.4703C78.6868 26.2552 79.6368 26.8825 79.8518 27.8504C80.0669 28.8183 79.4396 29.7683 78.4717 29.9834C77.916 30.1088 77.3425 30.2343 76.7689 30.3777C76.6434 30.4136 76.4821 30.4135 76.3567 30.4135ZM104.784 29.9117C104.659 29.9117 104.533 29.8938 104.426 29.8758C103.87 29.7504 103.278 29.6428 102.723 29.5532C101.755 29.374 101.092 28.4419 101.271 27.474C101.45 26.5061 102.382 25.8429 103.35 26.0222C103.96 26.1297 104.569 26.2552 105.16 26.3627C106.128 26.5599 106.756 27.5099 106.559 28.4778C106.361 29.3202 105.609 29.9117 104.784 29.9117ZM85.1753 28.9079C84.2611 28.9079 83.4904 28.2268 83.4008 27.2948C83.2932 26.309 84.0102 25.4307 84.996 25.3231L86.8243 25.1618C87.8101 25.0901 88.6704 25.825 88.7421 26.8108C88.8138 27.7967 88.0789 28.657 87.0931 28.7287C86.5196 28.7645 85.9281 28.8183 85.3545 28.8721C85.2828 28.89 85.229 28.9079 85.1753 28.9079ZM95.9117 28.7108H95.7863C95.2127 28.6749 94.6212 28.6391 94.0476 28.6212C93.0618 28.5853 92.2911 27.7608 92.3269 26.7571C92.3628 25.7712 93.1873 25.0005 94.191 25.0364C94.8004 25.0543 95.4278 25.0901 96.0372 25.126C97.023 25.1977 97.7758 26.0401 97.7041 27.0259C97.6324 27.9759 96.8438 28.7108 95.9117 28.7108Z" fill="#4696FF"/>
<path d="M139.143 43.8945C136.472 43.8945 134.303 46.0633 134.303 48.734C134.303 51.4047 136.472 53.5735 139.143 53.5735C141.813 53.5735 143.982 51.4047 143.982 48.734C143.982 46.0633 141.813 43.8945 139.143 43.8945Z" fill="white"/>
<path d="M139.144 40.3125C134.501 40.3125 130.719 44.0945 130.719 48.7368C130.719 53.3791 134.501 57.161 139.144 57.161C143.786 57.161 147.568 53.3791 147.568 48.7368C147.568 44.0945 143.786 40.3125 139.144 40.3125ZM134.286 48.7368C134.286 46.0661 136.455 43.8973 139.126 43.8973C141.796 43.8973 143.965 46.0661 143.965 48.7368C143.965 51.4074 141.796 53.5762 139.126 53.5762C136.455 53.5762 134.286 51.4074 134.286 48.7368Z" fill="#4696FF"/>
<path d="M129.447 73.1289H53.9516C53.3959 74.294 52.894 75.4949 52.4639 76.7137H130.953C130.505 75.4949 130.003 74.294 129.447 73.1289Z" fill="white"/>
<path d="M126.274 56.3369C117.043 47.106 104.765 42.0156 91.6984 42.0156C78.6318 42.0156 66.3539 47.106 57.123 56.3369C47.8922 65.5677 42.8018 77.8457 42.8018 90.9122C42.8018 103.979 47.8922 116.257 57.123 125.488C66.3539 134.718 78.6318 139.809 91.6984 139.809C104.765 139.809 117.043 134.718 126.274 125.488C135.505 116.257 140.595 103.979 140.595 90.9122C140.595 77.8457 135.522 65.5677 126.274 56.3369ZM54.4165 109.607H70.0283C70.2254 110.181 70.4405 110.754 70.6556 111.328C72.6273 116.418 75.3696 121.293 78.7931 125.81C80.6213 128.212 82.4317 130.255 84.0807 131.922C71.0858 129.52 60.188 121.078 54.4165 109.607ZM89.906 132.496C87.7551 130.632 84.6363 127.621 81.5534 123.534C78.9186 120.039 76.0149 115.361 73.8461 109.589H89.906V132.496ZM93.4908 132.496V109.607H109.551C107.382 115.361 104.478 120.057 101.843 123.552C98.7604 127.638 95.6416 130.632 93.4908 132.496ZM99.334 131.94C100.983 130.255 102.793 128.23 104.622 125.828C108.063 121.293 110.805 116.436 112.759 111.346C112.974 110.772 113.189 110.198 113.386 109.625H128.998C123.227 121.078 112.329 129.52 99.334 131.94ZM130.593 106.022H114.498C115.806 101.272 116.469 96.3611 116.469 91.3603C116.469 86.3954 115.806 81.4842 114.516 76.6985H110.769C112.06 81.1078 112.867 86.0011 112.867 91.3603C112.867 96.7375 112.042 101.649 110.752 106.022H93.4908V76.7164H89.906V106.022H72.6452C71.3547 101.649 70.5301 96.7555 70.5301 91.3603C70.5301 86.019 71.3547 81.1078 72.6273 76.6985H68.8811C67.5906 81.4842 66.9274 86.3954 66.9274 91.3603C66.9274 96.3611 67.5906 101.254 68.8991 106.022H52.8033C50.9751 101.326 49.9713 96.2357 49.9713 90.9122C49.9713 85.9294 50.8496 81.1437 52.4628 76.7164C52.9109 75.4976 53.4128 74.2967 53.9505 73.1316C59.6324 61.1226 70.8886 52.2323 84.3675 49.8305C82.6468 51.6408 80.711 53.8455 78.7752 56.4803C75.3517 61.1405 72.6093 66.1234 70.6377 71.2676C70.4047 71.877 70.1896 72.5043 69.9745 73.1316H73.7923C75.979 67.2167 78.9186 62.3414 81.5713 58.7028C84.6542 54.5086 87.7551 51.3899 89.906 49.4362V73.1316H93.4908V49.4362C95.6416 51.3899 98.7425 54.5266 101.825 58.7028C104.496 62.3414 107.436 67.1988 109.604 73.1316H113.422C113.207 72.5043 112.992 71.8949 112.759 71.2676C110.787 66.1055 108.063 61.1405 104.622 56.4803C102.704 53.8455 100.768 51.6229 99.0472 49.8305C112.526 52.2323 123.782 61.1226 129.464 73.1316C130.02 74.2967 130.522 75.4976 130.952 76.7164C132.565 81.1437 133.443 85.9294 133.443 90.9122C133.425 96.2357 132.422 101.344 130.593 106.022Z" fill="#4696FF"/>
</svg>
