<svg width="41" height="41" viewBox="0 0 41 41" fill="none" xmlns="http://www.w3.org/2000/svg">
<path d="M25.6624 21.3224C28.1629 19.4787 29.7851 16.5112 29.7851 13.1718C29.7851 7.58906 25.243 3.04688 19.6602 3.04688C14.0774 3.04688 9.53523 7.58906 9.53523 13.1718C9.53523 16.5112 11.1614 19.4787 13.658 21.3224C7.92885 23.6885 3.88916 29.3346 3.88916 35.9065C3.88916 36.7809 4.59739 37.4891 5.4718 37.4891C6.34621 37.4891 7.05444 36.7809 7.05444 35.9065C7.05444 28.9508 12.7124 23.2968 19.6641 23.2968C26.6159 23.2968 32.2738 28.9547 32.2738 35.9065C32.2738 36.7809 32.9821 37.4891 33.8565 37.4891C34.7309 37.4891 35.4391 36.7809 35.4391 35.9065C35.4352 29.3346 31.3915 23.6885 25.6624 21.3224ZM12.6966 13.1718C12.6966 9.32996 15.8223 6.2082 19.6602 6.2082C23.4981 6.2082 26.6238 9.33392 26.6238 13.1718C26.6238 17.0097 23.4981 20.1354 19.6602 20.1354C15.8223 20.1354 12.6966 17.0097 12.6966 13.1718Z" fill="#4696FF"/>
</svg>
