<svg width="45" height="45" viewBox="0 0 45 45" fill="none" xmlns="http://www.w3.org/2000/svg">
<path d="M27.9348 0.71875C28.3858 0.71875 28.8184 0.897917 29.1373 1.21684C29.4562 1.53576 29.6354 1.9683 29.6354 2.41933C29.6354 2.87035 29.4562 3.30289 29.1373 3.62181C28.8184 3.94073 28.3858 4.1199 27.9348 4.1199H8.58677C7.21146 4.1199 5.89248 4.66624 4.91998 5.63873C3.94749 6.61123 3.40115 7.93021 3.40115 9.30552V36.3469C3.40115 37.0279 3.53528 37.7022 3.79588 38.3314C4.05648 38.9605 4.43845 39.5322 4.91998 40.0137C5.40151 40.4952 5.97317 40.8772 6.60232 41.1378C7.23147 41.3984 7.90579 41.5326 8.58677 41.5326H35.5443C36.9157 41.5326 38.2312 40.9893 39.2031 40.0217C40.1749 39.0541 40.7239 37.741 40.7299 36.3696L40.8138 17.4014C40.8158 16.9504 40.9968 16.5186 41.3171 16.2011C41.6374 15.8835 42.0707 15.7062 42.5218 15.7082C42.9728 15.7101 43.4045 15.8912 43.7221 16.2115C44.0396 16.5318 44.2169 16.9651 44.215 17.4161L44.1311 36.3843C44.1212 38.6552 43.2121 40.8297 41.6029 42.4319C39.9936 44.0342 37.8152 44.9337 35.5443 44.9337H8.58677C6.30942 44.9337 4.12534 44.029 2.51501 42.4187C0.904675 40.8084 0 38.6243 0 36.3469V9.30552C0 7.02817 0.904675 4.84409 2.51501 3.23376C4.12534 1.62343 6.30942 0.71875 8.58677 0.71875H27.9348Z" fill="white"/>
<path d="M34.9289 1.65513L19.1078 17.3877C18.7899 17.7037 18.5377 18.0794 18.3655 18.4933C18.1933 18.9071 18.1046 19.3509 18.1045 19.7991V22.6606C18.1043 23.595 18.47 24.4923 19.1233 25.1602C19.7767 25.8282 20.6656 26.2137 21.5997 26.2341L24.3093 26.2931C24.7568 26.303 25.2019 26.2245 25.619 26.062C26.0361 25.8996 26.4171 25.6564 26.74 25.3464L42.8773 9.85984C43.9736 8.80738 44.6075 7.36293 44.6398 5.84358C44.6721 4.32423 44.1002 2.85415 43.0497 1.75604L42.9726 1.67668C41.909 0.607367 40.4642 0.0042747 38.956 2.26366e-05C37.4478 -0.00422943 35.9996 0.590707 34.93 1.654L34.9289 1.65513ZM40.5906 4.10736C41.0183 4.55444 41.2511 5.15293 41.2379 5.77146C41.2247 6.38999 40.9666 6.97803 40.5203 7.40648L24.3864 22.893L21.6757 22.833C21.6306 22.8321 21.5876 22.8135 21.556 22.7813C21.5245 22.7491 21.5068 22.7058 21.5068 22.6606V19.7991L37.3267 4.06655C37.7325 3.66314 38.2748 3.42654 38.8465 3.40345C39.4183 3.38037 39.9779 3.57247 40.4149 3.94184L40.5906 4.10736Z" fill="white"/>
<path d="M35.9423 3.84375L40.9738 8.90693L38.5612 11.3036L33.5298 6.24156L35.9423 3.84375Z" fill="white"/>
</svg>
