<svg width="41" height="41" viewBox="0 0 41 41" fill="none" xmlns="http://www.w3.org/2000/svg">
<g clip-path="url(#clip0_6850_8616)">
<path d="M36.48 30.5279L28.2068 35.3035C28.0999 35.3629 27.9694 35.2877 27.9694 35.165V32.2886C27.9694 31.9404 27.6845 31.6555 27.3363 31.6555H8.22986C6.54831 31.6555 4.96171 30.9948 3.7589 29.7959C2.56005 28.5971 1.8993 27.0105 1.8993 25.325C1.8993 23.6394 2.56005 22.0568 3.7589 20.854C4.95775 19.6551 6.54831 18.9944 8.22986 18.9944H31.0199C33.1288 18.9944 34.838 17.2693 34.8182 15.1565C34.7985 13.0674 33.0615 11.3977 30.9724 11.3977H10.4376C10.1686 11.3977 9.9312 11.5678 9.8402 11.8211C9.14384 13.7875 7.26841 15.196 5.06458 15.196C2.25539 15.196 -0.019655 12.9091 0.000128049 10.096C0.0199111 7.28679 2.35035 5.01966 5.15954 5.06714C7.3238 5.1067 9.15967 6.50734 9.84416 8.44608C9.9312 8.6993 10.1726 8.86548 10.4376 8.86548H31.0199C32.7015 8.86548 34.2881 9.52623 35.4909 10.7251C36.6897 11.9239 37.3505 13.5145 37.3505 15.196C37.3505 16.8776 36.6897 18.4642 35.4909 19.667C34.292 20.8659 32.7015 21.5266 31.0199 21.5266H8.22986C6.12099 21.5266 4.41174 23.2517 4.43152 25.3645C4.45131 27.4536 6.18826 29.1233 8.27734 29.1233H27.3363C27.6845 29.1233 27.9694 28.8384 27.9694 28.4902V25.6138C27.9694 25.4911 28.0999 25.416 28.2068 25.4753L36.48 30.2509C36.5868 30.3142 36.5868 30.4646 36.48 30.5279Z" fill="#4696FF"/>
</g>
<defs>
<clipPath id="clip0_6850_8616">
<rect width="40.5156" height="40.5156" fill="white"/>
</clipPath>
</defs>
</svg>
