<svg width="41" height="41" viewBox="0 0 41 41" fill="none" xmlns="http://www.w3.org/2000/svg">
<path d="M18.6416 20.5118C18.6416 21.0256 18.8457 21.5185 19.2091 21.8818C19.5725 22.2452 20.0653 22.4493 20.5792 22.4493C21.093 22.4493 21.5858 22.2452 21.9492 21.8818C22.3126 21.5185 22.5167 21.0256 22.5167 20.5118C22.5167 19.9979 22.3126 19.5051 21.9492 19.1417C21.5858 18.7784 21.093 18.5742 20.5792 18.5742C20.0653 18.5742 19.5725 18.7784 19.2091 19.1417C18.8457 19.5051 18.6416 19.9979 18.6416 20.5118Z" fill="#4696FF"/>
<path d="M37.8591 30.3453C37.5264 28.1042 36.5083 25.4648 34.9146 22.713C34.5312 22.051 33.6841 21.8255 33.0222 22.2085C32.3602 22.5919 32.1347 23.439 32.5177 24.1009C35.2379 28.7978 35.9742 32.8541 34.3935 34.4344C33.4495 35.3785 31.5831 35.5126 29.1384 34.8119C26.8182 34.1468 24.1091 32.754 21.3799 30.8367C23.0559 29.4831 24.7157 27.9871 26.3312 26.3716C28.4143 24.2885 30.2996 22.1321 31.9349 19.9623C34.2946 16.8315 36.0031 13.8387 36.8755 11.3081C37.344 9.94975 37.5663 8.73151 37.5374 7.68697C37.5018 6.41492 37.103 5.38937 36.3524 4.63841C35.6015 3.88744 34.5759 3.48862 33.3039 3.45301C32.2593 3.42373 31.0411 3.64649 29.6828 4.11495C27.1521 4.98738 24.1598 6.69584 21.0285 9.05556C18.8587 10.6908 16.702 12.5765 14.6192 14.6593C13.0037 16.2748 11.5077 17.9346 10.1542 19.6106C8.23681 16.8813 6.84408 14.1722 6.17898 11.8521C5.47826 9.4073 5.61239 7.54097 6.55683 6.59653C7.52145 5.63191 9.2315 5.69205 10.496 5.91243C12.5361 6.26813 14.9884 7.29685 17.5875 8.88819C18.2399 9.28742 19.0921 9.08246 19.4914 8.43002C19.8906 7.77758 19.6856 6.92532 19.0332 6.5261C16.1393 4.75473 13.3519 3.59901 10.9712 3.18396C7.50879 2.58058 5.59419 3.64174 4.59792 4.63801C3.40382 5.83211 2.24651 8.18511 3.51618 12.6149C4.33481 15.4712 6.01478 18.6677 8.39468 21.9094C6.35544 24.7344 4.86895 27.4201 4.07486 29.7233C3.60639 31.0816 3.38403 32.2998 3.41292 33.3444C3.44853 34.6164 3.84735 35.642 4.59792 36.3929C5.34888 37.1439 6.37443 37.5427 7.64648 37.5783C7.70702 37.5799 7.76795 37.5807 7.82967 37.5807C8.83228 37.5807 9.988 37.3575 11.2676 36.9164C13.5707 36.1223 16.2564 34.6358 19.0807 32.5962C22.3223 34.9761 25.5189 36.656 28.3751 37.4747C29.7417 37.8664 30.9101 38.027 31.908 38.027C34.1458 38.027 35.5263 37.2187 36.3516 36.3929C37.3076 35.4378 38.3446 33.6134 37.8591 30.3453ZM16.5777 16.6182C18.5699 14.6261 20.6285 12.8258 22.6958 11.2677C25.598 9.08049 28.3261 7.51288 30.5857 6.73382C32.4227 6.10037 33.8463 6.04933 34.3943 6.59732C34.9419 7.14491 34.8909 8.5685 34.2578 10.4056C33.4788 12.6652 31.9111 15.3932 29.7239 18.2954C28.1658 20.3627 26.3656 22.4214 24.3734 24.4135C22.6527 26.1342 20.8821 27.7121 19.0993 29.114L19.0696 29.0902C19.0387 29.0653 19.0079 29.04 18.977 29.0146C18.9165 28.9656 18.8559 28.9161 18.7958 28.8663C18.7618 28.8382 18.7273 28.8101 18.6933 28.7816C18.6348 28.7333 18.5766 28.6847 18.518 28.636C18.4848 28.6083 18.4516 28.5806 18.4183 28.5525C18.3538 28.4983 18.2894 28.4437 18.2249 28.3891C18.1991 28.367 18.173 28.3452 18.1473 28.323C18.0579 28.2467 17.9689 28.1703 17.8798 28.0932C17.8601 28.0761 17.8403 28.0587 17.8205 28.0417C17.7505 27.9808 17.6808 27.9199 17.6108 27.8585C17.5791 27.8308 17.5479 27.8031 17.5162 27.775C17.4577 27.7232 17.3991 27.6714 17.3406 27.6192L17.2405 27.5297C17.1819 27.4771 17.1229 27.4241 17.0644 27.3711C17.0335 27.343 17.0027 27.3153 16.9718 27.2872C16.9006 27.2223 16.8294 27.157 16.7585 27.0913C16.7411 27.0755 16.7241 27.0597 16.7067 27.0439C16.6189 26.9628 16.531 26.8808 16.4436 26.7986C16.4191 26.7756 16.3945 26.7523 16.37 26.7293C16.3067 26.6696 16.2434 26.6098 16.1801 26.5497C16.1488 26.5196 16.1172 26.4899 16.0859 26.4599C16.0285 26.4049 15.9716 26.3499 15.9142 26.2949C15.8826 26.264 15.8509 26.2336 15.8188 26.2027C15.7591 26.1445 15.6994 26.0864 15.6396 26.0278C15.6123 26.0009 15.5846 25.974 15.5573 25.9471C15.4711 25.862 15.3848 25.7766 15.2993 25.6911C15.2135 25.6052 15.1284 25.5194 15.0434 25.4331C15.0164 25.4058 14.9895 25.3781 14.9626 25.3508C14.9041 25.2915 14.8459 25.2317 14.7878 25.172C14.7569 25.1403 14.726 25.1087 14.6956 25.0766C14.6406 25.0197 14.5856 24.9627 14.531 24.9053C14.5009 24.8737 14.4708 24.8424 14.4408 24.8108C14.381 24.7482 14.3217 24.6853 14.2623 24.6224C14.2386 24.5975 14.2148 24.5726 14.1915 24.5472C14.1096 24.4602 14.0281 24.3728 13.9474 24.2853C13.9304 24.2671 13.9137 24.2485 13.8967 24.2303C13.8323 24.1607 13.7682 24.0908 13.7044 24.0206C13.6756 23.989 13.6471 23.9573 13.6186 23.9261C13.5664 23.8683 13.5141 23.8109 13.4623 23.7532C13.4314 23.7191 13.401 23.6847 13.3705 23.6503C13.3195 23.5929 13.2684 23.5359 13.2178 23.4786C13.1889 23.4457 13.1596 23.4133 13.1311 23.3804C13.0718 23.3132 13.0132 23.2455 12.9543 23.1783L12.8965 23.1122C12.8197 23.024 12.7438 22.9353 12.6682 22.8463C12.6453 22.8194 12.6223 22.7925 12.5998 22.7656C12.5459 22.7023 12.4925 22.639 12.4391 22.5757L12.3537 22.4736C12.3058 22.4162 12.2579 22.3585 12.21 22.3011C12.1811 22.2663 12.1527 22.2314 12.1238 22.1966C12.0743 22.1369 12.0257 22.0767 11.9766 22.0166C11.9513 21.9853 11.9256 21.9545 11.9006 21.9232L11.8769 21.8936C13.2791 20.1095 14.857 18.3389 16.5777 16.6182ZM10.3651 34.2979C8.52801 34.9314 7.10443 34.9824 6.55644 34.4344C6.00885 33.8868 6.05989 32.4628 6.69294 30.6262C7.34064 28.7468 8.53435 26.5437 10.1759 24.1856C10.189 24.2014 10.2024 24.2169 10.2155 24.2327C10.3251 24.3641 10.4355 24.4954 10.5471 24.626C10.5506 24.6303 10.5542 24.6343 10.5578 24.6386C10.6662 24.7657 10.7758 24.8927 10.8862 25.0193C10.917 25.0549 10.9479 25.0901 10.9791 25.1253C11.0761 25.2361 11.1738 25.3465 11.2719 25.4569C11.2909 25.4782 11.3099 25.5 11.3293 25.5214C11.4444 25.6503 11.5608 25.7785 11.6779 25.9067C11.7067 25.9384 11.7356 25.9696 11.7645 26.0013C11.8599 26.105 11.9556 26.2086 12.0518 26.3119C12.0803 26.3428 12.1091 26.3736 12.1376 26.4041C12.2567 26.5311 12.3762 26.6577 12.4969 26.7839C12.5186 26.8065 12.5404 26.8294 12.5622 26.852C12.6642 26.9584 12.7667 27.0644 12.87 27.1701L12.9697 27.2722C13.2163 27.5242 13.4657 27.7735 13.7179 28.02L13.822 28.1216C13.9264 28.2233 14.0309 28.3246 14.1357 28.4251C14.1598 28.4485 14.184 28.4718 14.2081 28.4947C14.3335 28.6146 14.4594 28.7333 14.5856 28.8516C14.6176 28.8817 14.6497 28.9114 14.6817 28.9411C14.7834 29.036 14.8855 29.1302 14.9876 29.224C15.0204 29.254 15.0529 29.2841 15.0857 29.3138C15.2131 29.4301 15.3409 29.5456 15.4691 29.6604C15.4916 29.6805 15.5142 29.7003 15.5367 29.7205C15.6459 29.8178 15.7555 29.9144 15.8651 30.0105C15.9008 30.0418 15.9368 30.073 15.9728 30.1043C16.099 30.2143 16.2256 30.3235 16.3522 30.4319C16.3566 30.4355 16.3609 30.4394 16.3653 30.443C16.4962 30.5546 16.6276 30.6649 16.7589 30.7749C16.7744 30.788 16.7898 30.8011 16.8056 30.8141C14.4479 32.4565 12.2445 33.6502 10.3651 34.2979Z" fill="#4696FF"/>
</svg>
