<svg width="46" height="46" viewBox="0 0 46 46" fill="none" xmlns="http://www.w3.org/2000/svg">
<path d="M42.5191 2.83622C45.8557 6.17445 45.9798 11.4887 44.2792 16.8166C43.6171 18.8466 42.7629 20.8089 41.7284 22.6768C42.7629 24.5448 43.6171 26.507 44.2792 28.537C45.9798 33.8666 45.8557 39.1826 42.5191 42.5191C39.1809 45.8557 33.8666 45.9798 28.537 44.2792C26.507 43.617 24.5448 42.7629 22.6768 41.7284C20.8089 42.7629 18.8466 43.6171 16.8166 44.2792C11.4887 45.9798 6.17445 45.8557 2.83792 42.5191C-0.500307 39.1809 -0.624449 33.8666 1.07613 28.537C1.68323 26.6324 2.54032 24.6631 3.62699 22.6768C2.59238 20.809 1.73823 18.8467 1.07613 16.8166C-0.624449 11.4887 -0.500307 6.17445 2.83622 2.83792C6.17445 -0.500307 11.4887 -0.624449 16.8166 1.07613C18.7213 1.68323 20.694 2.54032 22.6768 3.62699C24.5447 2.5924 26.507 1.73825 28.537 1.07613C33.8666 -0.624449 39.1826 -0.500307 42.5191 2.83622ZM5.70509 26.0831C5.1405 27.2735 4.67624 28.4418 4.31572 29.571C2.75119 34.4703 3.26647 38.1385 5.24083 40.1145C7.2169 42.0889 10.885 42.6025 15.7844 41.0396C16.9766 40.6544 18.1418 40.1903 19.2723 39.6503C16.6096 37.8406 14.1257 35.7809 11.8544 33.4993C9.57342 31.2284 7.51433 28.7451 5.70509 26.0831ZM39.6486 26.0831C37.8393 28.7451 35.7802 31.2284 33.4993 33.4993C31.2285 35.7808 28.7451 37.8405 26.0831 39.6503C27.2735 40.2149 28.4418 40.6791 29.571 41.0396C34.4703 42.6042 38.1385 42.0889 40.1145 40.1128C42.0889 38.1385 42.6025 34.4703 41.0396 29.571C40.6544 28.3788 40.1903 27.2136 39.6503 26.0831H39.6486ZM22.6768 7.55702C19.8505 9.2916 16.9799 11.5415 14.259 14.2607C11.5415 16.9782 9.2899 19.8505 7.55702 22.6785C9.2916 25.5049 11.5415 28.3755 14.2607 31.0964C16.9782 33.8139 19.8505 36.0638 22.6785 37.7983C25.5049 36.0638 28.3755 33.8139 31.0964 31.0947C33.8139 28.3755 36.0638 25.5049 37.7983 22.6768C36.0638 19.8505 33.8139 16.9799 31.0947 14.259C28.3755 11.5415 25.5049 9.2899 22.6768 7.55702ZM22.6768 18.4254C23.8044 18.4254 24.8858 18.8733 25.6831 19.6706C26.4804 20.4679 26.9283 21.5493 26.9283 22.6768C26.9283 23.8044 26.4804 24.8858 25.6831 25.6831C24.8858 26.4804 23.8044 26.9283 22.6768 26.9283C21.5493 26.9283 20.4679 26.4804 19.6706 25.6831C18.8733 24.8858 18.4254 23.8044 18.4254 22.6768C18.4254 21.5493 18.8733 20.4679 19.6706 19.6706C20.4679 18.8733 21.5493 18.4254 22.6768 18.4254ZM5.24083 5.24083C3.26647 7.2169 2.75289 10.885 4.31572 15.7844C4.67624 16.9136 5.1405 18.0802 5.70509 19.2723C7.51422 16.6097 9.57332 14.1258 11.8544 11.8544C14.1258 9.57332 16.6097 7.51422 19.2723 5.70509C18.0819 5.1405 16.9136 4.67624 15.7827 4.31572C10.885 2.75119 7.2169 3.26647 5.24083 5.24083ZM29.571 4.31572C28.4418 4.67624 27.2752 5.1405 26.0831 5.70509C28.7451 7.51433 31.2284 9.57342 33.4993 11.8544C35.7809 14.1257 37.8406 16.6096 39.6503 19.2723C40.2149 18.0819 40.6791 16.9136 41.0396 15.7827C42.6042 10.885 42.0889 7.2169 40.1128 5.24083C38.1385 3.26647 34.4703 2.75289 29.571 4.31572Z" fill="white"/>
</svg>
