<svg width="55" height="55" viewBox="0 0 55 55" fill="none" xmlns="http://www.w3.org/2000/svg">
<path d="M27.2092 0C12.1395 0 0 12.1395 0 27.2092C0 42.2789 12.1395 54.4184 27.2092 54.4184C42.2789 54.4184 54.4184 42.2789 54.4184 27.2092C54.4184 12.1395 42.2789 0 27.2092 0ZM27.2092 50.2324C14.4418 50.2324 4.18603 39.9766 4.18603 27.2092C4.18603 14.4418 14.4418 4.18603 27.2092 4.18603C39.9766 4.18603 50.2324 14.4418 50.2324 27.2092C50.2324 39.9766 39.9766 50.2324 27.2092 50.2324ZM37.6743 29.3022C38.7208 29.3022 39.7673 28.465 39.7673 27.2092C39.7673 25.9534 38.9301 25.1162 37.6743 25.1162H31.6045L37.2557 15.6976C37.8836 14.6511 37.6743 13.3953 36.6278 12.7674C35.5813 12.1395 34.3255 12.5581 33.6976 13.6046L27.4185 24.0697C27.2092 24.279 27.2092 24.6976 27.2092 25.1162C27.2092 24.9069 27.2092 24.9069 27.2092 24.6976C27.2092 24.4883 27.2092 24.279 26.9999 24.0697L20.7209 13.6046C20.093 12.5581 18.8371 12.1395 17.7906 12.7674C16.7441 13.3953 16.5348 14.6511 16.9534 15.6976L22.6046 25.1162H16.7441C15.6976 25.1162 14.6511 25.9534 14.6511 27.2092C14.6511 28.465 15.4883 29.3022 16.7441 29.3022H25.1162V31.3952H16.7441C15.6976 31.3952 14.6511 32.2324 14.6511 33.4883C14.6511 34.7441 15.4883 35.5813 16.7441 35.5813H25.1162V41.8603C25.1162 42.9068 25.9534 43.9533 27.2092 43.9533C28.465 43.9533 29.3022 43.1161 29.3022 41.8603V35.5813H37.6743C38.7208 35.5813 39.7673 34.7441 39.7673 33.4883C39.7673 32.2324 38.9301 31.3952 37.6743 31.3952H29.3022V29.3022H37.6743Z" fill="white"/>
</svg>
