<svg width="55" height="55" viewBox="0 0 55 55" fill="none" xmlns="http://www.w3.org/2000/svg">
<path d="M52.8433 25.6434C52.6998 25.6529 52.559 25.6821 52.423 25.7298C52.2944 25.691 52.1618 25.6665 52.0277 25.6556H38.3287C38.1062 16.3331 35.9669 8.27176 32.8515 3.78363C39.8449 5.44882 45.7214 10.1642 48.8627 16.6297C48.9821 16.8738 49.1636 17.0822 49.389 17.2339C49.6144 17.3857 49.8758 17.4755 50.1469 17.4943C50.6986 17.5324 51.2292 17.2732 51.538 16.8147C51.8468 16.3556 51.8876 15.7672 51.6448 15.2699C47.1165 5.89777 37.609 -0.0412777 27.2009 0.000216023C12.1781 0.000216023 0 12.1783 0 27.2011C0 28.0616 0.697231 28.7588 1.55772 28.7588C1.66315 28.7472 1.76723 28.7227 1.86654 28.6847C1.95837 28.7166 2.0536 28.737 2.15087 28.7466H16.0724C16.2948 38.0446 18.4212 46.0563 21.5251 50.5818C14.5371 48.8765 8.66744 44.1571 5.50099 37.6983C5.1289 36.927 4.20176 36.6025 3.4297 36.9746C2.65832 37.3467 2.33453 38.2738 2.70662 39.0459C8.22461 50.4702 20.9081 56.5624 33.2746 53.7285C45.6411 50.8947 54.4065 39.8887 54.4004 27.2011C54.4004 26.7882 54.2364 26.3916 53.9439 26.0998C53.6535 25.8073 53.2569 25.6434 52.8433 25.6434ZM35.2622 25.6434H19.1892C19.4735 12.1912 23.9861 3.3136 27.09 3.11633H27.3002C30.4034 3.28911 34.9289 12.179 35.2622 25.6556V25.6434ZM21.4883 3.82104C18.3851 8.30917 16.2588 16.3583 16.0731 25.6556H3.17801C3.863 15.1611 11.2747 6.32359 21.4883 3.82104ZM19.1395 28.7466H35.2126C34.8786 42.2109 30.366 51.1008 27.2628 51.2865H27.0526C23.999 51.1131 19.4735 42.2232 19.1395 28.7466ZM32.9134 50.5811C36.0166 46.093 38.143 38.0439 38.3661 28.7459H51.2244C50.5387 39.2404 43.1277 48.0786 32.9134 50.5811Z" fill="white"/>
</svg>
