<svg width="41" height="41" viewBox="0 0 41 41" fill="none" xmlns="http://www.w3.org/2000/svg">
<path d="M30.3865 3.16406C32.2333 3.16406 34.0046 3.89773 35.3105 5.20366C36.6164 6.50959 37.3501 8.28082 37.3501 10.1277V30.3855C37.3501 32.2324 36.6164 34.0036 35.3105 35.3095C34.0046 36.6155 32.2333 37.3491 30.3865 37.3491H10.1287C8.28179 37.3491 6.51057 36.6155 5.20464 35.3095C3.8987 34.0036 3.16504 32.2324 3.16504 30.3855V10.1277C3.16504 8.28082 3.8987 6.50959 5.20464 5.20366C6.51057 3.89773 8.28179 3.16406 10.1287 3.16406H30.3865ZM18.3584 22.1558H6.96338V30.3855C6.96338 32.0238 8.20923 33.3735 9.80454 33.5356L10.1287 33.5508H18.3584V22.1558ZM33.5518 22.1558H22.1567V33.5508H30.3865C31.1701 33.5511 31.926 33.2608 32.5079 32.736C33.0898 32.2111 33.4563 31.4891 33.5366 30.7096L33.5518 30.3855V22.1558ZM30.3865 6.9624H10.1287C8.38143 6.9624 6.96338 8.38045 6.96338 10.1277V18.3574H33.5518V10.1277C33.5521 9.34407 33.2618 8.58817 32.737 8.00627C32.2121 7.42437 31.4901 7.05784 30.7106 6.9776L30.3865 6.9624Z" fill="#4696FF"/>
</svg>
