<svg width="48" height="48" viewBox="0 0 48 48" fill="none" xmlns="http://www.w3.org/2000/svg">
<path d="M45.1044 41.3462C42.4844 32.466 34.6299 26.1367 25.3936 25.4724V15.8801H31.7442C32.6211 15.8801 33.3332 15.168 33.3332 14.2911V7.94054C33.3332 7.06368 32.6211 6.35156 31.7442 6.35156H15.8704C14.9936 6.35156 14.2815 7.06368 14.2815 7.94054V14.2911C14.2815 15.168 14.9936 15.8801 15.8704 15.8801H22.221V25.4777C12.9848 26.142 5.12492 32.466 2.50497 41.3515C0.793763 41.7235 -0.295668 43.4082 0.0710183 45.1247C0.443019 46.8359 2.12765 47.9253 3.84417 47.5586C5.3056 47.2451 6.3472 45.9484 6.3472 44.4551C6.3472 43.6367 6.02835 42.898 5.52349 42.34C7.71829 34.7618 14.3559 29.32 22.221 28.661V41.7235C21.2751 42.2709 20.632 43.2859 20.632 44.4604C20.632 46.2141 22.051 47.633 23.8047 47.633C25.5584 47.633 26.9773 46.2141 26.9773 44.4604C26.9773 43.2912 26.3343 42.2762 25.3883 41.7235V28.6504C33.2535 29.3093 39.891 34.7512 42.0859 42.3294C41.5597 42.9086 41.2621 43.6632 41.2621 44.4445C41.2621 46.1982 42.6811 47.6171 44.4348 47.6171C46.1885 47.6171 47.6074 46.1982 47.6074 44.4445C47.6127 42.9511 46.5658 41.6598 45.1044 41.3462Z" fill="white"/>
<path d="M12.6928 22.2191H16.535C17.4119 22.2191 18.124 21.507 18.124 20.6301C18.124 19.7532 17.4119 19.0411 16.535 19.0411H12.6928C11.8159 19.0411 11.1038 18.329 11.1038 17.4522V4.76161C11.1038 3.88475 11.8159 3.17264 12.6928 3.17264H34.9118C35.7887 3.17264 36.5008 3.88475 36.5008 4.76161V17.4575C36.5008 18.3343 35.7887 19.0464 34.9118 19.0464H30.4159C29.5391 19.0464 28.827 19.7586 28.827 20.6354C28.827 21.5123 29.5391 22.2244 30.4159 22.2244H34.9118C37.5424 22.2244 39.6735 20.0934 39.6735 17.4628V4.76161C39.6735 2.13103 37.5424 0 34.9118 0H12.6928C10.0622 0 7.93115 2.13103 7.93115 4.76161V17.4575C7.93115 20.088 10.0675 22.2191 12.6928 22.2191Z" fill="white"/>
</svg>
