<svg width="184" height="184" viewBox="0 0 184 184" fill="none" xmlns="http://www.w3.org/2000/svg">
<path d="M53.6289 91.1236C53.6289 96.0854 54.6062 100.999 56.505 105.583C58.4038 110.167 61.187 114.332 64.6955 117.841C68.2041 121.349 72.3693 124.132 76.9534 126.031C81.5376 127.93 86.4508 128.907 91.4126 128.907C96.3745 128.907 101.288 127.93 105.872 126.031C110.456 124.132 114.621 121.349 118.13 117.841C121.638 114.332 124.421 110.167 126.32 105.583C128.219 100.999 129.196 96.0854 129.196 91.1236C129.196 81.1027 125.216 71.4923 118.13 64.4064C111.044 57.3206 101.434 53.3398 91.4126 53.3398C81.3918 53.3398 71.7813 57.3206 64.6955 64.4064C57.6097 71.4923 53.6289 81.1027 53.6289 91.1236Z" fill="#E6E6E6" fill-opacity="0.1"/>
<path d="M91.4121 65.1328C77.0729 65.1328 65.4224 76.8013 65.4224 91.1226C65.4224 105.444 77.0909 117.112 91.4121 117.112C105.733 117.112 117.402 105.444 117.402 91.1226C117.402 76.8013 105.751 65.1328 91.4121 65.1328Z" fill="white" fill-opacity="0.1"/>
<path d="M91.4115 61.5469C75.1007 61.5469 61.8369 74.8106 61.8369 91.1214C61.8369 107.432 75.1007 120.696 91.4115 120.696C107.722 120.696 120.986 107.432 120.986 91.1214C120.986 74.8106 107.722 61.5469 91.4115 61.5469ZM91.4115 117.129C77.0723 117.129 65.4217 105.461 65.4217 91.1394C65.4217 76.8181 77.0902 65.1496 91.4115 65.1496C105.733 65.1496 117.401 76.8181 117.401 91.1394C117.401 105.461 105.751 117.129 91.4115 117.129Z" fill="white"/>
<path d="M142.567 87.5404H136.222C135.38 76.8756 130.845 66.9816 123.191 59.328C115.538 51.6745 105.608 47.1218 94.9253 46.2973V39.7371C94.9253 37.7655 93.3122 36.1523 91.3405 36.1523C89.3689 36.1523 87.7557 37.7655 87.7557 39.7371V46.3152C77.1268 47.1577 67.2328 51.7104 59.6151 59.328C51.9795 66.9637 47.4268 76.8756 46.5844 87.5404H40.5081C38.5365 87.5404 36.9233 89.1535 36.9233 91.1252C36.9233 93.0968 38.5365 94.71 40.5081 94.71H46.6023C47.4447 105.375 51.9795 115.269 59.633 122.922C67.2507 130.54 77.1447 135.093 87.7737 135.935V142.298C87.7737 144.27 89.3868 145.883 91.3585 145.883C93.3301 145.883 94.9433 144.27 94.9433 142.298V135.953C105.626 135.129 115.556 130.576 123.209 122.922C130.845 115.287 135.398 105.375 136.24 94.71H142.585C144.557 94.71 146.17 93.0968 146.17 91.1252C146.17 89.1535 144.557 87.5404 142.567 87.5404ZM94.9433 128.748V119.445C94.9433 117.473 93.3301 115.86 91.3585 115.86C89.3868 115.86 87.7737 117.473 87.7737 119.445V128.73C69.8318 127.009 55.5105 112.67 53.8077 94.71H63.2357C65.2074 94.71 66.8205 93.0968 66.8205 91.1252C66.8205 89.1535 65.2074 87.5404 63.2357 87.5404H53.8077C55.5105 69.5806 69.8318 55.2414 87.7737 53.5207V62.5364C87.7737 64.5081 89.3868 66.1212 91.3585 66.1212C93.3301 66.1212 94.9433 64.5081 94.9433 62.5364V53.5207C112.957 55.1876 127.332 69.5626 129.035 87.5583H120.162C118.191 87.5583 116.577 89.1715 116.577 91.1431C116.577 93.1147 118.191 94.7279 120.162 94.7279H129.035C127.332 112.724 112.939 127.081 94.9433 128.748Z" fill="#4696FF"/>
<path d="M157.802 28.3192C157.802 26.3475 156.189 24.7344 154.218 24.7344H91.4119C82.4499 24.7344 73.7568 26.4909 65.5655 29.9503C57.661 33.302 50.5632 38.0877 44.469 44.1819C38.3748 50.276 33.5891 57.3739 30.2374 65.2784C26.778 73.4697 25.0215 82.1628 25.0215 91.1248C25.0215 93.0964 26.6346 94.7096 28.6063 94.7096C30.5779 94.7096 32.1911 93.0964 32.1911 91.1248C32.1911 58.4673 58.7544 31.904 91.4119 31.904H141.832V41.6725C141.832 43.2678 143.75 44.0564 144.879 42.9272L156.906 30.9002C157.193 30.6134 157.354 30.2908 157.408 29.9503C157.659 29.4663 157.802 28.9107 157.802 28.3192ZM154.218 87.54C152.246 87.54 150.633 89.1532 150.633 91.1248C150.633 123.782 124.069 150.346 91.4119 150.346H41.2785V140.344C41.2785 138.749 39.3607 137.96 38.2315 139.089L26.2045 151.116C26.0252 151.296 25.8818 151.511 25.7922 151.726C25.3083 152.335 25.0215 153.106 25.0215 153.948C25.0215 155.92 26.6346 157.533 28.6063 157.533H91.4119C100.374 157.533 109.067 155.777 117.258 152.317C125.163 148.965 132.261 144.18 138.355 138.086C144.449 131.991 149.235 124.894 152.586 116.989C156.046 108.798 157.802 100.105 157.802 91.1427C157.802 89.1532 156.207 87.54 154.218 87.54Z" fill="#4696FF"/>
</svg>
